<svg width="134" height="64" viewBox="0 0 134 64" fill="none" xmlns="http://www.w3.org/2000/svg">
<g filter="url(#filter0_d_1_582)">
<rect x="10.8125" y="6" width="113.188" height="44" rx="22" fill="#181E29" shape-rendering="crispEdges"/>
<rect x="11.3125" y="6.5" width="112.188" height="43" rx="21.5" stroke="#353C4A" shape-rendering="crispEdges"/>
<path d="M35.8125 23.043C35.8125 22.3691 36.3398 21.8125 37.0137 21.8125H49.582C50.2559 21.8125 50.8125 22.3691 50.8125 23.043C50.8125 23.3359 50.6953 23.5996 50.5195 23.8047L45.6562 29.8105V34C45.6562 34.5273 45.2168 34.9375 44.6895 34.9375C44.4844 34.9375 44.2793 34.8789 44.1035 34.7324L41.4082 32.5938C41.1152 32.3594 40.9688 32.0371 40.9688 31.6855V29.8105L36.0762 23.8047C35.9004 23.5996 35.8125 23.3359 35.8125 23.043ZM37.4238 23.2188L42.1992 29.1074C42.3164 29.2539 42.375 29.4004 42.375 29.5469V31.5684L44.25 33.0625V29.5469C44.25 29.4004 44.2793 29.2539 44.3965 29.1074L49.2012 23.2188H37.4238Z" fill="#C9CED6"/>
<path d="M61.7607 33.5V22.5909H68.9837V24.4925H64.0671V27.092H68.5043V28.9936H64.0671V33.5H61.7607ZM70.4925 33.5V25.3182H72.7616V33.5H70.4925ZM71.6324 24.2635C71.295 24.2635 71.0056 24.1516 70.7641 23.9279C70.5262 23.7006 70.4072 23.429 70.4072 23.1129C70.4072 22.8004 70.5262 22.5323 70.7641 22.3086C71.0056 22.0813 71.295 21.9677 71.6324 21.9677C71.9697 21.9677 72.2574 22.0813 72.4953 22.3086C72.7368 22.5323 72.8575 22.8004 72.8575 23.1129C72.8575 23.429 72.7368 23.7006 72.4953 23.9279C72.2574 24.1516 71.9697 24.2635 71.6324 24.2635ZM76.8485 22.5909V33.5H74.5794V22.5909H76.8485ZM83.0182 25.3182V27.0227H78.091V25.3182H83.0182ZM79.2096 23.358H81.4788V30.9858C81.4788 31.1953 81.5107 31.3587 81.5747 31.4759C81.6386 31.5895 81.7274 31.6694 81.841 31.7156C81.9582 31.7617 82.0931 31.7848 82.2458 31.7848C82.3524 31.7848 82.4589 31.7759 82.5654 31.7582C82.672 31.7369 82.7536 31.7209 82.8105 31.7102L83.1673 33.3988C83.0537 33.4343 82.8939 33.4751 82.6879 33.5213C82.482 33.571 82.2316 33.6012 81.9369 33.6119C81.39 33.6332 80.9106 33.5604 80.4987 33.3935C80.0903 33.2266 79.7725 32.9673 79.5452 32.6158C79.3179 32.2642 79.2061 31.8203 79.2096 31.2841V23.358ZM88.1372 33.6598C87.2955 33.6598 86.5711 33.4893 85.9639 33.1484C85.3602 32.804 84.895 32.3175 84.5683 31.6889C84.2416 31.0568 84.0782 30.3093 84.0782 29.4464C84.0782 28.6048 84.2416 27.8661 84.5683 27.2305C84.895 26.5948 85.3548 26.0994 85.9479 25.7443C86.5445 25.3892 87.2441 25.2116 88.0466 25.2116C88.5864 25.2116 89.0889 25.2987 89.5541 25.4727C90.0228 25.6431 90.4312 25.9006 90.7792 26.245C91.1308 26.5895 91.4042 27.0227 91.5995 27.5447C91.7948 28.0632 91.8925 28.6705 91.8925 29.3665V29.9897H84.9838V28.5835H89.7565C89.7565 28.2567 89.6855 27.9673 89.5434 27.7152C89.4014 27.4631 89.2043 27.266 88.9521 27.1239C88.7036 26.9783 88.4142 26.9055 88.0839 26.9055C87.7394 26.9055 87.434 26.9854 87.1677 27.1452C86.9049 27.3015 86.699 27.5128 86.5498 27.7791C86.4007 28.0419 86.3243 28.3349 86.3208 28.658V29.995C86.3208 30.3999 86.3953 30.7496 86.5445 31.0444C86.6972 31.3391 86.912 31.5664 87.189 31.7262C87.466 31.886 87.7945 31.9659 88.1744 31.9659C88.4266 31.9659 88.6574 31.9304 88.8669 31.8594C89.0764 31.7884 89.2558 31.6818 89.4049 31.5398C89.5541 31.3977 89.6677 31.2237 89.7458 31.0178L91.8445 31.1562C91.738 31.6605 91.5196 32.1009 91.1894 32.4773C90.8627 32.8501 90.4401 33.1413 89.9216 33.3509C89.4067 33.5568 88.8119 33.6598 88.1372 33.6598ZM93.3733 33.5V25.3182H95.5732V26.7457H95.6585C95.8076 26.2379 96.058 25.8544 96.4095 25.5952C96.7611 25.3324 97.1659 25.201 97.624 25.201C97.7377 25.201 97.8602 25.2081 97.9916 25.2223C98.123 25.2365 98.2384 25.256 98.3378 25.2809V27.2944C98.2313 27.2624 98.0839 27.234 97.8957 27.2092C97.7075 27.1843 97.5352 27.1719 97.379 27.1719C97.0452 27.1719 96.7469 27.2447 96.4841 27.3903C96.2249 27.5323 96.0189 27.7312 95.8662 27.9869C95.7171 28.2425 95.6425 28.5373 95.6425 28.8711V33.5H93.3733Z" fill="#C9CED6"/>
</g>
<defs>
<filter id="filter0_d_1_582" x="0.8125" y="0" width="133.188" height="64" filterUnits="userSpaceOnUse" color-interpolation-filters="sRGB">
<feFlood flood-opacity="0" result="BackgroundImageFix"/>
<feColorMatrix in="SourceAlpha" type="matrix" values="0 0 0 0 0 0 0 0 0 0 0 0 0 0 0 0 0 0 127 0" result="hardAlpha"/>
<feOffset dy="4"/>
<feGaussianBlur stdDeviation="5"/>
<feComposite in2="hardAlpha" operator="out"/>
<feColorMatrix type="matrix" values="0 0 0 0 0 0 0 0 0 0 0 0 0 0 0 0 0 0 0.1 0"/>
<feBlend mode="normal" in2="BackgroundImageFix" result="effect1_dropShadow_1_582"/>
<feBlend mode="normal" in="SourceGraphic" in2="effect1_dropShadow_1_582" result="shape"/>
</filter>
</defs>
</svg>
