<svg width="885" height="60" viewBox="0 0 885 60" fill="none" xmlns="http://www.w3.org/2000/svg">
<path d="M25.4302 16.446C25.2882 14.8835 24.6561 13.669 23.5339 12.8026C22.426 11.9219 20.8422 11.4815 18.7825 11.4815C17.4189 11.4815 16.2825 11.6591 15.3734 12.0142C14.4643 12.3693 13.7825 12.8594 13.3279 13.4844C12.8734 14.0952 12.639 14.7983 12.6248 15.5938C12.5964 16.2472 12.7243 16.8224 13.0083 17.3196C13.3066 17.8168 13.7328 18.2571 14.2868 18.6406C14.8549 19.0099 15.5368 19.3366 16.3322 19.6207C17.1277 19.9048 18.0225 20.1534 19.0169 20.3665L22.7669 21.2188C24.926 21.6875 26.8294 22.3125 28.4771 23.0938C30.139 23.875 31.5311 24.8054 32.6532 25.8849C33.7896 26.9645 34.649 28.2074 35.2314 29.6136C35.8137 31.0199 36.112 32.5966 36.1262 34.3438C36.112 37.0994 35.416 39.4645 34.0382 41.4389C32.6603 43.4134 30.6788 44.9261 28.0936 45.9773C25.5226 47.0284 22.4189 47.554 18.7825 47.554C15.1319 47.554 11.9501 47.0071 9.23704 45.9134C6.52397 44.8196 4.4146 43.1577 2.90891 40.9276C1.40323 38.6974 0.629084 35.8778 0.58647 32.4688H10.6859C10.7711 33.875 11.1476 35.0469 11.8152 35.9844C12.4828 36.9219 13.399 37.6321 14.5637 38.1151C15.7427 38.598 17.1064 38.8395 18.6547 38.8395C20.0751 38.8395 21.2825 38.6477 22.2768 38.2642C23.2853 37.8807 24.0595 37.348 24.5993 36.6662C25.139 35.9844 25.416 35.2031 25.4302 34.3224C25.416 33.4986 25.1603 32.7955 24.6632 32.2131C24.166 31.6165 23.399 31.1051 22.362 30.679C21.3393 30.2386 20.0325 29.8338 18.4416 29.4645L13.8819 28.3991C10.1035 27.5327 7.12766 26.1335 4.95437 24.2017C2.78107 22.2557 1.70153 19.6278 1.71573 16.3182C1.70153 13.6193 2.42596 11.2543 3.88903 9.22301C5.3521 7.19176 7.37624 5.60795 9.96147 4.47159C12.5467 3.33523 15.4941 2.76704 18.8038 2.76704C22.1845 2.76704 25.1177 3.34233 27.6035 4.4929C30.1035 5.62926 32.0424 7.22727 33.4203 9.28693C34.7981 11.3466 35.5012 13.733 35.5297 16.446H25.4302ZM51.872 28.3352V47H41.4529V3.36364H51.5311V20.2812H51.8933C52.6319 18.2642 53.8393 16.6875 55.5154 15.5511C57.2058 14.4148 59.2726 13.8466 61.7157 13.8466C64.0169 13.8466 66.0197 14.358 67.7243 15.3807C69.4288 16.3892 70.7498 17.8168 71.6873 19.6634C72.639 21.5099 73.1078 23.669 73.0936 26.1406V47H62.6745V28.1861C62.6887 26.3679 62.2342 24.9474 61.3109 23.9247C60.3876 22.902 59.0879 22.3906 57.4118 22.3906C56.318 22.3906 55.3521 22.6321 54.514 23.1151C53.6902 23.5838 53.0439 24.2585 52.5751 25.1392C52.1206 26.0199 51.8862 27.0852 51.872 28.3352ZM94.8745 47.6179C91.437 47.6179 88.4824 46.9148 86.0108 45.5085C83.5534 44.0881 81.6571 42.1136 80.3219 39.5852C79.0009 37.0426 78.3404 34.0952 78.3404 30.7429C78.3404 27.3764 79.0009 24.429 80.3219 21.9006C81.6571 19.358 83.5534 17.3835 86.0108 15.9773C88.4824 14.5568 91.437 13.8466 94.8745 13.8466C98.312 13.8466 101.259 14.5568 103.717 15.9773C106.188 17.3835 108.085 19.358 109.406 21.9006C110.741 24.429 111.409 27.3764 111.409 30.7429C111.409 34.0952 110.741 37.0426 109.406 39.5852C108.085 42.1136 106.188 44.0881 103.717 45.5085C101.259 46.9148 98.312 47.6179 94.8745 47.6179ZM94.9384 39.7557C96.1884 39.7557 97.2466 39.3722 98.1131 38.6051C98.9796 37.8381 99.6401 36.7727 100.095 35.4091C100.563 34.0455 100.798 32.4687 100.798 30.679C100.798 28.8608 100.563 27.2699 100.095 25.9062C99.6401 24.5426 98.9796 23.4773 98.1131 22.7102C97.2466 21.9432 96.1884 21.5597 94.9384 21.5597C93.6458 21.5597 92.552 21.9432 91.6571 22.7102C90.7765 23.4773 90.1017 24.5426 89.633 25.9062C89.1784 27.2699 88.9512 28.8608 88.9512 30.679C88.9512 32.4687 89.1784 34.0455 89.633 35.4091C90.1017 36.7727 90.7765 37.8381 91.6571 38.6051C92.552 39.3722 93.6458 39.7557 94.9384 39.7557ZM116.746 47V14.2727H126.867V20.2386H127.208C127.804 18.0795 128.777 16.4744 130.127 15.4233C131.476 14.358 133.046 13.8253 134.835 13.8253C135.318 13.8253 135.816 13.8608 136.327 13.9318C136.838 13.9886 137.314 14.081 137.754 14.2088V23.2642C137.257 23.0937 136.604 22.9588 135.794 22.8594C134.999 22.7599 134.289 22.7102 133.664 22.7102C132.428 22.7102 131.313 22.9872 130.318 23.5412C129.338 24.081 128.564 24.8409 127.996 25.821C127.442 26.7869 127.165 27.9233 127.165 29.2301V47H116.746ZM161.996 14.2727V21.9432H141.35V14.2727H161.996ZM145.675 6.43182H156.094V36.7088C156.094 37.348 156.194 37.8665 156.393 38.2642C156.606 38.6477 156.911 38.9247 157.309 39.0952C157.706 39.2514 158.182 39.3295 158.736 39.3295C159.134 39.3295 159.553 39.294 159.993 39.223C160.448 39.1378 160.789 39.0668 161.016 39.0099L162.593 46.5312C162.096 46.6733 161.393 46.8509 160.483 47.0639C159.589 47.277 158.516 47.4119 157.266 47.4688C154.823 47.5824 152.728 47.2983 150.981 46.6165C149.248 45.9205 147.92 44.8409 146.996 43.3778C146.087 41.9148 145.647 40.0753 145.675 37.8594V6.43182ZM182.259 47.6179C178.836 47.6179 175.881 46.9432 173.395 45.5938C170.924 44.2301 169.02 42.2912 167.685 39.777C166.364 37.2486 165.704 34.2443 165.704 30.7642C165.704 27.3835 166.371 24.429 167.706 21.9006C169.042 19.358 170.924 17.3835 173.353 15.9773C175.782 14.5568 178.644 13.8466 181.939 13.8466C184.269 13.8466 186.4 14.2088 188.331 14.9332C190.263 15.6577 191.932 16.7301 193.339 18.1506C194.745 19.571 195.839 21.3253 196.62 23.4134C197.401 25.4872 197.792 27.8665 197.792 30.5511V33.1506H169.347V27.0994H188.097C188.083 25.9915 187.82 25.0043 187.309 24.1378C186.797 23.2713 186.094 22.5966 185.199 22.1136C184.319 21.6165 183.303 21.3679 182.153 21.3679C180.988 21.3679 179.944 21.6307 179.02 22.1562C178.097 22.6676 177.366 23.3707 176.826 24.2656C176.286 25.1463 176.002 26.1477 175.974 27.2699V33.4276C175.974 34.7628 176.236 35.9347 176.762 36.9432C177.287 37.9375 178.033 38.7116 178.999 39.2656C179.965 39.8196 181.116 40.0966 182.451 40.0966C183.374 40.0966 184.212 39.9687 184.965 39.7131C185.718 39.4574 186.364 39.081 186.904 38.5838C187.444 38.0866 187.849 37.4759 188.118 36.7514L197.685 37.0284C197.287 39.1733 196.414 41.0412 195.064 42.6321C193.729 44.2088 191.975 45.4375 189.802 46.3182C187.628 47.1847 185.114 47.6179 182.259 47.6179ZM213.532 28.3352V47H203.113V14.2727H213.021V20.2812H213.383C214.107 18.2784 215.343 16.7088 217.09 15.5724C218.838 14.4219 220.919 13.8466 223.333 13.8466C225.634 13.8466 227.63 14.3651 229.32 15.402C231.025 16.4247 232.346 17.8594 233.284 19.706C234.235 21.5384 234.704 23.6832 234.69 26.1406V47H224.271V28.1861C224.285 26.3679 223.823 24.9474 222.886 23.9247C221.963 22.902 220.677 22.3906 219.029 22.3906C217.936 22.3906 216.97 22.6321 216.132 23.1151C215.308 23.5838 214.669 24.2585 214.214 25.1392C213.774 26.0199 213.546 27.0852 213.532 28.3352ZM251.858 3.36364H263.64L272.866 21.6236H273.25L282.476 3.36364H294.258L278.3 32.4261V47H267.817V32.4261L251.858 3.36364ZM306.398 47.6179C302.96 47.6179 300.006 46.9148 297.534 45.5085C295.077 44.0881 293.181 42.1136 291.845 39.5852C290.524 37.0426 289.864 34.0952 289.864 30.7429C289.864 27.3764 290.524 24.429 291.845 21.9006C293.181 19.358 295.077 17.3835 297.534 15.9773C300.006 14.5568 302.96 13.8466 306.398 13.8466C309.835 13.8466 312.783 14.5568 315.24 15.9773C317.712 17.3835 319.608 19.358 320.929 21.9006C322.264 24.429 322.932 27.3764 322.932 30.7429C322.932 34.0952 322.264 37.0426 320.929 39.5852C319.608 42.1136 317.712 44.0881 315.24 45.5085C312.783 46.9148 309.835 47.6179 306.398 47.6179ZM306.462 39.7557C307.712 39.7557 308.77 39.3722 309.637 38.6051C310.503 37.8381 311.164 36.7727 311.618 35.4091C312.087 34.0455 312.321 32.4687 312.321 30.679C312.321 28.8608 312.087 27.2699 311.618 25.9062C311.164 24.5426 310.503 23.4773 309.637 22.7102C308.77 21.9432 307.712 21.5597 306.462 21.5597C305.169 21.5597 304.075 21.9432 303.181 22.7102C302.3 23.4773 301.625 24.5426 301.156 25.9062C300.702 27.2699 300.475 28.8608 300.475 30.679C300.475 32.4687 300.702 34.0455 301.156 35.4091C301.625 36.7727 302.3 37.8381 303.181 38.6051C304.075 39.3722 305.169 39.7557 306.462 39.7557ZM349.384 32.8736V14.2727H359.782V47H349.853V40.9062H349.512C348.788 42.9091 347.552 44.5 345.805 45.679C344.072 46.8437 341.977 47.4261 339.519 47.4261C337.289 47.4261 335.329 46.9148 333.639 45.892C331.948 44.8693 330.634 43.4418 329.697 41.6094C328.759 39.7628 328.284 37.6037 328.269 35.1321V14.2727H338.688V33.0866C338.703 34.8622 339.171 36.2614 340.095 37.2841C341.018 38.3068 342.275 38.8182 343.866 38.8182C344.903 38.8182 345.833 38.5909 346.657 38.1364C347.495 37.6676 348.156 36.9929 348.639 36.1122C349.136 35.2173 349.384 34.1378 349.384 32.8736ZM366.414 47V14.2727H376.535V20.2386H376.876C377.472 18.0795 378.445 16.4744 379.795 15.4233C381.144 14.358 382.714 13.8253 384.503 13.8253C384.986 13.8253 385.483 13.8608 385.995 13.9318C386.506 13.9886 386.982 14.081 387.422 14.2088V23.2642C386.925 23.0937 386.272 22.9588 385.462 22.8594C384.667 22.7599 383.956 22.7102 383.331 22.7102C382.096 22.7102 380.981 22.9872 379.986 23.5412C379.006 24.081 378.232 24.8409 377.664 25.821C377.11 26.7869 376.833 27.9233 376.833 29.2301V47H366.414ZM404.558 47V3.36364H415.105V38.4347H433.259V47H404.558ZM453.996 47.6179C450.558 47.6179 447.604 46.9148 445.132 45.5085C442.675 44.0881 440.778 42.1136 439.443 39.5852C438.122 37.0426 437.461 34.0952 437.461 30.7429C437.461 27.3764 438.122 24.429 439.443 21.9006C440.778 19.358 442.675 17.3835 445.132 15.9773C447.604 14.5568 450.558 13.8466 453.996 13.8466C457.433 13.8466 460.381 14.5568 462.838 15.9773C465.309 17.3835 467.206 19.358 468.527 21.9006C469.862 24.429 470.53 27.3764 470.53 30.7429C470.53 34.0952 469.862 37.0426 468.527 39.5852C467.206 42.1136 465.309 44.0881 462.838 45.5085C460.381 46.9148 457.433 47.6179 453.996 47.6179ZM454.059 39.7557C455.309 39.7557 456.368 39.3722 457.234 38.6051C458.101 37.8381 458.761 36.7727 459.216 35.4091C459.684 34.0455 459.919 32.4687 459.919 30.679C459.919 28.8608 459.684 27.2699 459.216 25.9062C458.761 24.5426 458.101 23.4773 457.234 22.7102C456.368 21.9432 455.309 21.5597 454.059 21.5597C452.767 21.5597 451.673 21.9432 450.778 22.7102C449.898 23.4773 449.223 24.5426 448.754 25.9062C448.3 27.2699 448.072 28.8608 448.072 30.679C448.072 32.4687 448.3 34.0455 448.754 35.4091C449.223 36.7727 449.898 37.8381 450.778 38.6051C451.673 39.3722 452.767 39.7557 454.059 39.7557ZM491.144 47.6179C487.706 47.6179 484.752 46.9148 482.28 45.5085C479.823 44.0881 477.927 42.1136 476.591 39.5852C475.27 37.0426 474.61 34.0952 474.61 30.7429C474.61 27.3764 475.27 24.429 476.591 21.9006C477.927 19.358 479.823 17.3835 482.28 15.9773C484.752 14.5568 487.706 13.8466 491.144 13.8466C494.581 13.8466 497.529 14.5568 499.986 15.9773C502.458 17.3835 504.354 19.358 505.675 21.9006C507.01 24.429 507.678 27.3764 507.678 30.7429C507.678 34.0952 507.01 37.0426 505.675 39.5852C504.354 42.1136 502.458 44.0881 499.986 45.5085C497.529 46.9148 494.581 47.6179 491.144 47.6179ZM491.208 39.7557C492.458 39.7557 493.516 39.3722 494.383 38.6051C495.249 37.8381 495.91 36.7727 496.364 35.4091C496.833 34.0455 497.067 32.4687 497.067 30.679C497.067 28.8608 496.833 27.2699 496.364 25.9062C495.91 24.5426 495.249 23.4773 494.383 22.7102C493.516 21.9432 492.458 21.5597 491.208 21.5597C489.915 21.5597 488.822 21.9432 487.927 22.7102C487.046 23.4773 486.371 24.5426 485.903 25.9062C485.448 27.2699 485.221 28.8608 485.221 30.679C485.221 32.4687 485.448 34.0455 485.903 35.4091C486.371 36.7727 487.046 37.8381 487.927 38.6051C488.822 39.3722 489.915 39.7557 491.208 39.7557ZM528.292 47.6179C524.855 47.6179 521.9 46.9148 519.429 45.5085C516.971 44.0881 515.075 42.1136 513.74 39.5852C512.419 37.0426 511.758 34.0952 511.758 30.7429C511.758 27.3764 512.419 24.429 513.74 21.9006C515.075 19.358 516.971 17.3835 519.429 15.9773C521.9 14.5568 524.855 13.8466 528.292 13.8466C531.73 13.8466 534.677 14.5568 537.135 15.9773C539.606 17.3835 541.503 19.358 542.824 21.9006C544.159 24.429 544.827 27.3764 544.827 30.7429C544.827 34.0952 544.159 37.0426 542.824 39.5852C541.503 42.1136 539.606 44.0881 537.135 45.5085C534.677 46.9148 531.73 47.6179 528.292 47.6179ZM528.356 39.7557C529.606 39.7557 530.665 39.3722 531.531 38.6051C532.398 37.8381 533.058 36.7727 533.513 35.4091C533.981 34.0455 534.216 32.4687 534.216 30.679C534.216 28.8608 533.981 27.2699 533.513 25.9062C533.058 24.5426 532.398 23.4773 531.531 22.7102C530.665 21.9432 529.606 21.5597 528.356 21.5597C527.064 21.5597 525.97 21.9432 525.075 22.7102C524.194 23.4773 523.52 24.5426 523.051 25.9062C522.596 27.2699 522.369 28.8608 522.369 30.679C522.369 32.4687 522.596 34.0455 523.051 35.4091C523.52 36.7727 524.194 37.8381 525.075 38.6051C525.97 39.3722 527.064 39.7557 528.356 39.7557ZM565.441 47.6179C562.003 47.6179 559.049 46.9148 556.577 45.5085C554.12 44.0881 552.224 42.1136 550.888 39.5852C549.567 37.0426 548.907 34.0952 548.907 30.7429C548.907 27.3764 549.567 24.429 550.888 21.9006C552.224 19.358 554.12 17.3835 556.577 15.9773C559.049 14.5568 562.003 13.8466 565.441 13.8466C568.878 13.8466 571.826 14.5568 574.283 15.9773C576.755 17.3835 578.651 19.358 579.972 21.9006C581.307 24.429 581.975 27.3764 581.975 30.7429C581.975 34.0952 581.307 37.0426 579.972 39.5852C578.651 42.1136 576.755 44.0881 574.283 45.5085C571.826 46.9148 568.878 47.6179 565.441 47.6179ZM565.505 39.7557C566.755 39.7557 567.813 39.3722 568.68 38.6051C569.546 37.8381 570.206 36.7727 570.661 35.4091C571.13 34.0455 571.364 32.4687 571.364 30.679C571.364 28.8608 571.13 27.2699 570.661 25.9062C570.206 24.5426 569.546 23.4773 568.68 22.7102C567.813 21.9432 566.755 21.5597 565.505 21.5597C564.212 21.5597 563.118 21.9432 562.224 22.7102C561.343 23.4773 560.668 24.5426 560.199 25.9062C559.745 27.2699 559.518 28.8608 559.518 30.679C559.518 32.4687 559.745 34.0455 560.199 35.4091C560.668 36.7727 561.343 37.8381 562.224 38.6051C563.118 39.3722 564.212 39.7557 565.505 39.7557ZM597.731 28.3352V47H587.312V14.2727H597.22V20.2812H597.582C598.307 18.2784 599.542 16.7088 601.29 15.5724C603.037 14.4219 605.118 13.8466 607.532 13.8466C609.834 13.8466 611.829 14.3651 613.52 15.402C615.224 16.4247 616.545 17.8594 617.483 19.706C618.434 21.5384 618.903 23.6832 618.889 26.1406V47H608.47V28.1861C608.484 26.3679 608.023 24.9474 607.085 23.9247C606.162 22.902 604.876 22.3906 603.229 22.3906C602.135 22.3906 601.169 22.6321 600.331 23.1151C599.507 23.5838 598.868 24.2585 598.413 25.1392C597.973 26.0199 597.746 27.0852 597.731 28.3352ZM640.595 59.9545C637.485 59.9545 634.821 59.5213 632.605 58.6548C630.389 57.7884 628.649 56.6023 627.385 55.0966C626.121 53.5909 625.361 51.8864 625.105 49.983L634.97 49.429C635.155 50.0966 635.496 50.679 635.993 51.1761C636.504 51.6733 637.165 52.0568 637.975 52.3267C638.798 52.5966 639.764 52.7315 640.872 52.7315C642.619 52.7315 644.061 52.3054 645.198 51.4531C646.348 50.6151 646.923 49.1449 646.923 47.0426V41.2898H646.561C646.149 42.2983 645.524 43.2003 644.686 43.9957C643.848 44.7912 642.804 45.4162 641.554 45.8707C640.318 46.3253 638.898 46.5526 637.293 46.5526C634.906 46.5526 632.719 45.9986 630.73 44.8906C628.756 43.7685 627.172 42.0355 625.979 39.6918C624.8 37.3338 624.21 34.3011 624.21 30.5938C624.21 26.7727 624.821 23.6264 626.043 21.1548C627.264 18.669 628.862 16.8295 630.837 15.6364C632.825 14.4432 634.963 13.8466 637.25 13.8466C638.969 13.8466 640.439 14.1449 641.661 14.7415C642.896 15.3239 643.912 16.0767 644.708 17C645.503 17.9233 646.107 18.8821 646.519 19.8764H646.817V14.2727H657.193V47.1278C657.193 49.8977 656.497 52.2344 655.105 54.1378C653.713 56.0412 651.767 57.483 649.267 58.4631C646.767 59.4574 643.877 59.9545 640.595 59.9545ZM640.915 38.9673C642.179 38.9673 643.259 38.6335 644.154 37.9659C645.048 37.2983 645.737 36.3395 646.22 35.0895C646.703 33.8395 646.945 32.3409 646.945 30.5938C646.945 28.8182 646.703 27.2912 646.22 26.0128C645.752 24.7202 645.063 23.7259 644.154 23.0298C643.259 22.3338 642.179 21.9858 640.915 21.9858C639.622 21.9858 638.529 22.3409 637.634 23.0511C636.739 23.7614 636.057 24.7628 635.588 26.0554C635.134 27.3338 634.906 28.8466 634.906 30.5938C634.906 32.3409 635.141 33.8395 635.61 35.0895C636.078 36.3395 636.753 37.2983 637.634 37.9659C638.529 38.6335 639.622 38.9673 640.915 38.9673ZM676.726 47V3.36364H687.273V38.4347H705.427V47H676.726ZM710.887 47V14.2727H721.306V47H710.887ZM716.107 10.4588C714.644 10.4588 713.387 9.97585 712.335 9.00994C711.284 8.02983 710.759 6.85085 710.759 5.47301C710.759 4.10937 711.284 2.9446 712.335 1.97869C713.387 0.998578 714.644 0.50852 716.107 0.50852C717.584 0.50852 718.841 0.998578 719.878 1.97869C720.929 2.9446 721.455 4.10937 721.455 5.47301C721.455 6.85085 720.929 8.02983 719.878 9.00994C718.841 9.97585 717.584 10.4588 716.107 10.4588ZM738.356 28.3352V47H727.937V14.2727H737.845V20.2812H738.207C738.932 18.2784 740.167 16.7088 741.915 15.5724C743.662 14.4219 745.743 13.8466 748.157 13.8466C750.459 13.8466 752.454 14.3651 754.145 15.402C755.849 16.4247 757.17 17.8594 758.108 19.706C759.059 21.5384 759.528 23.6832 759.514 26.1406V47H749.095V28.1861C749.109 26.3679 748.648 24.9474 747.71 23.9247C746.787 22.902 745.501 22.3906 743.854 22.3906C742.76 22.3906 741.794 22.6321 740.956 23.1151C740.132 23.5838 739.493 24.2585 739.038 25.1392C738.598 26.0199 738.371 27.0852 738.356 28.3352ZM775.361 38.4134L775.404 25.9915H776.852L786.057 14.2727H797.861L784.182 31.0625H781.433L775.361 38.4134ZM765.965 47V3.36364H776.384V47H765.965ZM786.291 47L777.726 33.4062L784.587 26.0128L798.33 47H786.291ZM830.162 24.2656L820.595 24.5213C820.496 23.8395 820.226 23.2358 819.786 22.7102C819.345 22.1705 818.77 21.7514 818.06 21.4531C817.364 21.1406 816.554 20.9844 815.631 20.9844C814.423 20.9844 813.394 21.2259 812.541 21.7088C811.703 22.1918 811.291 22.8452 811.306 23.669C811.291 24.3082 811.547 24.8622 812.073 25.331C812.612 25.7997 813.571 26.1761 814.949 26.4602L821.256 27.6534C824.523 28.2784 826.952 29.3153 828.543 30.7642C830.148 32.2131 830.958 34.1307 830.972 36.517C830.958 38.7614 830.29 40.7145 828.969 42.3764C827.662 44.0384 825.872 45.331 823.6 46.2543C821.327 47.1634 818.727 47.6179 815.801 47.6179C811.128 47.6179 807.442 46.6591 804.743 44.7415C802.058 42.8097 800.524 40.2244 800.141 36.9858L810.432 36.7301C810.659 37.9233 811.249 38.8324 812.2 39.4574C813.152 40.0824 814.367 40.3949 815.844 40.3949C817.179 40.3949 818.266 40.1463 819.104 39.6491C819.942 39.152 820.368 38.4915 820.382 37.6676C820.368 36.929 820.041 36.3395 819.402 35.8991C818.763 35.4446 817.762 35.0895 816.398 34.8338L810.688 33.7472C807.406 33.1506 804.963 32.0497 803.358 30.4446C801.753 28.8253 800.958 26.7656 800.972 24.2656C800.958 22.0781 801.54 20.2102 802.719 18.6619C803.898 17.0994 805.574 15.9063 807.747 15.0824C809.921 14.2585 812.485 13.8466 815.439 13.8466C819.871 13.8466 823.365 14.777 825.922 16.6378C828.479 18.4844 829.892 21.027 830.162 24.2656ZM854.851 47.6179C853.317 47.6179 852.003 47.0781 850.91 45.9986C849.83 44.919 849.297 43.6122 849.312 42.0781C849.297 40.5724 849.83 39.2869 850.91 38.2216C852.003 37.142 853.317 36.6023 854.851 36.6023C856.3 36.6023 857.579 37.142 858.687 38.2216C859.809 39.2869 860.377 40.5724 860.391 42.0781C860.377 43.1009 860.107 44.0312 859.581 44.8693C859.07 45.7074 858.395 46.375 857.557 46.8722C856.733 47.3693 855.831 47.6179 854.851 47.6179ZM854.851 25.1605C853.317 25.1605 852.003 24.6278 850.91 23.5625C849.83 22.483 849.297 21.169 849.312 19.6207C849.297 18.1151 849.83 16.8295 850.91 15.7642C852.003 14.6847 853.317 14.1449 854.851 14.1449C856.3 14.1449 857.579 14.6847 858.687 15.7642C859.809 16.8295 860.377 18.1151 860.391 19.6207C860.377 20.6435 860.107 21.5739 859.581 22.4119C859.07 23.25 858.395 23.9176 857.557 24.4148C856.733 24.9119 855.831 25.1605 854.851 25.1605ZM884.084 29.8267C884.084 35.0824 883.374 39.9261 881.954 44.358C880.533 48.7756 878.317 52.8807 875.306 56.6733H865.206C866.357 55.267 867.415 53.5554 868.381 51.5384C869.361 49.5213 870.206 47.3125 870.917 44.9119C871.641 42.5114 872.202 40.0256 872.6 37.4545C873.012 34.8835 873.218 32.3409 873.218 29.8267C873.218 26.4602 872.87 23.0724 872.174 19.6634C871.478 16.2401 870.526 13.0724 869.319 10.1605C868.111 7.23437 866.741 4.8338 865.206 2.9588H875.306C878.317 6.75142 880.533 10.8636 881.954 15.2955C883.374 19.7131 884.084 24.5568 884.084 29.8267Z" fill="url(#paint0_linear_178_307)"/>
<defs>
<linearGradient id="paint0_linear_178_307" x1="-1.93236" y1="48.9999" x2="896.283" y2="34.5809" gradientUnits="userSpaceOnUse">
<stop stop-color="#144EE3"/>
<stop offset="0.1875" stop-color="#EB568E"/>
<stop offset="0.640625" stop-color="#A353AA"/>
<stop offset="1" stop-color="#144EE3"/>
</linearGradient>
</defs>
</svg>
